<?xml version="1.0" encoding="utf-8"?>
<!-- Generator: Adobe Illustrator 22.1.0, SVG Export Plug-In . SVG Version: 6.00 Build 0)  -->
<svg version="1.1" id="Layer_1" xmlns="http://www.w3.org/2000/svg" xmlns:xlink="http://www.w3.org/1999/xlink" x="0px" y="0px"
	 viewBox="0 0 40 40" style="enable-background:new 0 0 40 40;" xml:space="preserve">
<style type="text/css">
	.st0{fill:none;}
	.st1{fill:#F7F7F7;}
</style>
<g>
	<path class="st0" d="M34.9,13.8c-0.1-1.6-0.3-2.7-0.7-3.6c-0.4-1-0.9-1.8-1.7-2.7c-0.8-0.8-1.7-1.3-2.7-1.7c-1-0.4-2-0.6-3.6-0.7
		C24.6,5,24.1,5,20,5c-4.1,0-4.6,0-6.2,0.1c-1.6,0.1-2.7,0.3-3.6,0.7c-1,0.4-1.8,0.9-2.7,1.7c-0.8,0.8-1.3,1.7-1.7,2.7
		c-0.4,1-0.6,2-0.7,3.6C5,15.4,5,15.9,5,20c0,4.1,0,4.6,0.1,6.2c0.1,1.6,0.3,2.7,0.7,3.6c0.4,1,0.9,1.8,1.7,2.7
		c0.8,0.8,1.7,1.3,2.7,1.7c1,0.4,2,0.6,3.6,0.7C15.4,35,15.9,35,20,35s4.6,0,6.2-0.1c1.6-0.1,2.7-0.3,3.6-0.7c1-0.4,1.8-0.9,2.7-1.7
		c0.8-0.8,1.3-1.7,1.7-2.7c0.4-1,0.6-2,0.7-3.6C35,24.6,35,24.1,35,20C35,15.9,35,15.4,34.9,13.8z M20,27.7c-4.3,0-7.7-3.5-7.7-7.7
		c0-4.3,3.5-7.7,7.7-7.7s7.7,3.5,7.7,7.7C27.7,24.3,24.3,27.7,20,27.7z"/>
	<ellipse transform="matrix(3.905374e-03 -1 1 3.905374e-03 -7.216046e-02 39.9335)" class="st0" cx="20" cy="20" rx="5" ry="5"/>
</g>
<g>
	<path class="st0" d="M34.9,13.8c-0.1-1.6-0.3-2.7-0.7-3.6c-0.4-1-0.9-1.8-1.7-2.7c-0.8-0.8-1.7-1.3-2.7-1.7c-1-0.4-2-0.6-3.6-0.7
		C24.6,5,24.1,5,20,5c-4.1,0-4.6,0-6.2,0.1c-1.6,0.1-2.7,0.3-3.6,0.7c-1,0.4-1.8,0.9-2.7,1.7c-0.8,0.8-1.3,1.7-1.7,2.7
		c-0.4,1-0.6,2-0.7,3.6C5,15.4,5,15.9,5,20c0,4.1,0,4.6,0.1,6.2c0.1,1.6,0.3,2.7,0.7,3.6c0.4,1,0.9,1.8,1.7,2.7
		c0.8,0.8,1.7,1.3,2.7,1.7c1,0.4,2,0.6,3.6,0.7C15.4,35,15.9,35,20,35s4.6,0,6.2-0.1c1.6-0.1,2.7-0.3,3.6-0.7c1-0.4,1.8-0.9,2.7-1.7
		c0.8-0.8,1.3-1.7,1.7-2.7c0.4-1,0.6-2,0.7-3.6C35,24.6,35,24.1,35,20C35,15.9,35,15.4,34.9,13.8z M28,13.8c-1,0-1.8-0.8-1.8-1.8
		c0-1,0.8-1.8,1.8-1.8c1,0,1.8,0.8,1.8,1.8C29.8,13,29,13.8,28,13.8z"/>
	<path class="st1" d="M20,0C9,0,0,9,0,20s9,20,20,20s20-9,20-20S31,0,20,0z M34.2,29.8c-0.4,1-0.9,1.8-1.7,2.7
		c-0.8,0.8-1.7,1.3-2.7,1.7c-0.9,0.4-2,0.6-3.6,0.7C24.6,35,24.1,35,20,35s-4.6,0-6.2-0.1c-1.6-0.1-2.7-0.3-3.6-0.7
		c-1-0.4-1.8-0.9-2.7-1.7c-0.8-0.8-1.3-1.7-1.7-2.7c-0.4-0.9-0.6-2-0.7-3.6C5,24.6,5,24.1,5,20c0-4.1,0-4.6,0.1-6.2
		c0.1-1.6,0.3-2.7,0.7-3.6c0.4-1,0.9-1.8,1.7-2.7c0.8-0.8,1.7-1.3,2.7-1.7c0.9-0.4,2-0.6,3.6-0.7C15.4,5,15.9,5,20,5
		c4.1,0,4.6,0,6.2,0.1c1.6,0.1,2.7,0.3,3.6,0.7c1,0.4,1.8,0.9,2.7,1.7c0.8,0.8,1.3,1.7,1.7,2.7c0.4,0.9,0.6,2,0.7,3.6
		C35,15.4,35,15.9,35,20c0,4.1,0,4.6-0.1,6.2C34.8,27.8,34.6,28.9,34.2,29.8z"/>
	<g>
		<ellipse transform="matrix(3.905374e-03 -1 1 3.905374e-03 -7.216046e-02 39.9335)" class="st1" cx="20" cy="20" rx="5" ry="5"/>
		<path class="st1" d="M32.2,13.9c-0.1-1.5-0.3-2.3-0.5-2.8c-0.3-0.7-0.6-1.2-1.1-1.7c-0.5-0.5-1-0.8-1.7-1.1
			c-0.5-0.2-1.3-0.5-2.8-0.5C24.5,7.7,24,7.7,20,7.7s-4.5,0-6.1,0.1c-1.5,0.1-2.3,0.3-2.8,0.5C10.5,8.6,10,8.9,9.4,9.4
			c-0.5,0.5-0.9,1-1.1,1.7c-0.2,0.5-0.5,1.3-0.5,2.8C7.7,15.5,7.7,16,7.7,20s0,4.5,0.1,6.1c0.1,1.5,0.3,2.3,0.5,2.8
			c0.3,0.7,0.6,1.2,1.1,1.7c0.5,0.5,1,0.8,1.7,1.1c0.5,0.2,1.3,0.5,2.8,0.5c1.6,0.1,2.1,0.1,6.1,0.1c4,0,4.5,0,6.1-0.1
			c1.5-0.1,2.3-0.3,2.8-0.5c0.7-0.3,1.2-0.6,1.7-1.1c0.5-0.5,0.9-1,1.1-1.7c0.2-0.5,0.5-1.3,0.5-2.8c0.1-1.6,0.1-2.1,0.1-6.1
			S32.3,15.5,32.2,13.9z M20,27.7c-4.3,0-7.7-3.5-7.7-7.7c0-4.3,3.5-7.7,7.7-7.7s7.7,3.5,7.7,7.7C27.7,24.3,24.3,27.7,20,27.7z
			 M28,13.8c-1,0-1.8-0.8-1.8-1.8c0-1,0.8-1.8,1.8-1.8c1,0,1.8,0.8,1.8,1.8C29.8,13,29,13.8,28,13.8z"/>
	</g>
</g>
</svg>
