<?xml version="1.0" encoding="utf-8"?>
<!-- Generator: Adobe Illustrator 22.1.0, SVG Export Plug-In . SVG Version: 6.00 Build 0)  -->
<svg version="1.1" id="Layer_1" xmlns="http://www.w3.org/2000/svg" xmlns:xlink="http://www.w3.org/1999/xlink" x="0px" y="0px"
	 viewBox="0 0 40 40" style="enable-background:new 0 0 40 40;" xml:space="preserve">
<style type="text/css">
	.st0{fill:#F7F7F7;}
</style>
<g>
	<path class="st0" d="M20,0C9,0,0,9,0,20s9,20,20,20s20-9,20-20S31,0,20,0z M22.6,27.5c-2.1,0-4-1.1-4.7-2.4c0,0-1.1,4.4-1.4,5.3
		c-0.8,3-3.3,6.1-3.5,6.3c-0.1,0.2-0.4,0.1-0.5-0.1c-0.1-0.4-0.7-4.2,0.1-7.3c0.4-1.6,2.5-10.5,2.5-10.5s-0.6-1.2-0.6-3
		c0-2.9,1.7-5,3.7-5c1.7,0,2.6,1.3,2.6,2.9c0,1.8-1.1,4.4-1.7,6.8c-0.5,2,1,3.7,3,3.7c3.6,0,6.1-4.7,6.1-10.2c0-4.2-2.8-7.4-8-7.4
		c-5.8,0-9.5,4.4-9.5,9.2c0,1.7,0.5,2.9,1.3,3.8c0.4,0.4,0.4,0.6,0.3,1.1c-0.1,0.4-0.3,1.2-0.4,1.5c-0.1,0.5-0.5,0.7-1,0.5
		c-2.7-1.1-3.9-4-3.9-7.4c0-5.5,4.6-12,13.8-12h0c7.3,0,12.2,5.3,12.2,11C33,21.8,28.8,27.5,22.6,27.5z"/>
</g>
</svg>
