<?xml version="1.0" encoding="utf-8"?>
<!-- Generator: Adobe Illustrator 22.1.0, SVG Export Plug-In . SVG Version: 6.00 Build 0)  -->
<svg version="1.1" id="Layer_1" xmlns="http://www.w3.org/2000/svg" xmlns:xlink="http://www.w3.org/1999/xlink" x="0px" y="0px"
	 viewBox="0 0 40 40" style="enable-background:new 0 0 40 40;" xml:space="preserve">
<style type="text/css">
	.st0{fill:#F7F7F7;}
</style>
<g>
	<path class="st0" d="M20,0C9,0,0,9,0,20s9,20,20,20s20-9,20-20S31,0,20,0z M31.5,11.3L27.7,30c-0.3,1.5-1,2-2.3,1.2l-5.7-4.5
		L16.4,30c-0.4,0.4-1.1,0.4-1.4-0.4l0.4-4.9l12-11.5c0.7-0.6-0.1-0.8-0.9-0.2l-14,9.1l-5.8-1.9c-1-0.5-0.7-1.3,0.2-1.7l22.6-9.2
		C31.2,8.6,31.8,9.4,31.5,11.3z"/>
</g>
</svg>
